<?xml version="1.0" encoding="UTF-8"?>
<svg xmlns="http://www.w3.org/2000/svg" xmlns:xlink="http://www.w3.org/1999/xlink" width="250px" height="250px" viewBox="0 0 250 250" version="1.1">
<g id="surface1">
<path style=" stroke:none;fill-rule:nonzero;fill:rgb(100%,71.372549%,71.372549%);fill-opacity:1;" d="M 167.8125 122.621094 C 167.8125 145.03125 149.648438 163.195312 127.238281 163.195312 C 104.828125 163.195312 86.660156 145.03125 86.660156 122.621094 C 86.660156 100.210938 104.828125 82.042969 127.238281 82.042969 C 149.648438 82.042969 167.8125 100.210938 167.8125 122.621094 Z M 167.8125 122.621094 "/>
<path style=" stroke:none;fill-rule:nonzero;fill:rgb(100%,71.372549%,71.372549%);fill-opacity:1;" d="M 103.941406 169.199219 L 102.109375 150.667969 L 138.71875 143.820312 L 160.332031 196.453125 L 122.738281 239.6875 L 95.953125 187.054688 Z M 103.941406 169.199219 "/>
<path style=" stroke:none;fill-rule:nonzero;fill:rgb(18.431373%,18.039216%,25.490196%);fill-opacity:1;" d="M 101.519531 159.941406 L 109.523438 161.75 C 109.523438 161.75 103.234375 141.800781 105.367188 139.894531 C 107.503906 137.992188 112.738281 140.992188 112.738281 140.992188 L 118.234375 147.15625 L 124.933594 140.335938 C 124.933594 140.335938 132.207031 131.296875 135.054688 128.753906 C 137.902344 126.214844 133.328125 116.789062 133.328125 116.789062 C 133.328125 116.789062 175.570312 105.398438 159.851562 84.910156 C 159.851562 84.910156 150.636719 68.847656 147.636719 74.078125 C 144.632812 79.3125 141.054688 71 141.054688 71 L 130.128906 73.078125 C 130.128906 73.078125 108.5625 60.363281 88.089844 87.566406 C 67.621094 114.769531 101.519531 159.941406 101.519531 159.941406 Z M 101.519531 159.941406 "/>
<path style=" stroke:none;fill-rule:nonzero;fill:rgb(42.352941%,38.823529%,100%);fill-opacity:1;" d="M 203.550781 222.25 C 181.375 240.230469 153.941406 250 125 250 C 98.570312 250 73.398438 241.851562 52.339844 226.75 C 52.378906 226.351562 52.414062 225.964844 52.449219 225.574219 C 53.007812 219.464844 53.503906 213.523438 53.835938 208.601562 C 55.109375 189.476562 99.71875 176.734375 99.71875 176.734375 C 99.71875 176.734375 99.921875 176.9375 100.324219 177.289062 C 102.785156 179.449219 112.78125 187.289062 130.308594 189.476562 C 145.941406 191.433594 151.085938 182.160156 152.640625 177.722656 C 153.109375 176.367188 153.25 175.460938 153.25 175.460938 L 199.136719 197.128906 C 202.128906 201.40625 203.300781 210.617188 203.527344 220.96875 C 203.539062 221.394531 203.546875 221.820312 203.550781 222.25 Z M 203.550781 222.25 "/>
<path style=" stroke:none;fill-rule:nonzero;fill:rgb(24.705882%,23.921569%,33.72549%);fill-opacity:1;" d="M 213.386719 36.613281 C 189.777344 13.003906 158.386719 0 125 0 C 91.613281 0 60.222656 13.003906 36.613281 36.613281 C 13.003906 60.222656 0 91.613281 0 125 C 0 155.476562 10.832031 184.285156 30.679688 207.035156 C 32.574219 209.210938 34.554688 211.328125 36.613281 213.386719 C 37.097656 213.871094 37.585938 214.355469 38.078125 214.824219 C 39.394531 216.101562 40.734375 217.34375 42.097656 218.550781 C 42.921875 219.289062 43.757812 220.015625 44.605469 220.722656 C 45.269531 221.28125 45.929688 221.832031 46.601562 222.375 C 46.617188 222.386719 46.625 222.398438 46.640625 222.40625 C 48.503906 223.910156 50.402344 225.355469 52.339844 226.75 C 73.398438 241.851562 98.570312 250 125 250 C 153.941406 250 181.375 240.230469 203.550781 222.25 C 205.363281 220.785156 207.132812 219.261719 208.871094 217.6875 C 210.410156 216.296875 211.914062 214.863281 213.386719 213.386719 C 213.851562 212.921875 214.320312 212.453125 214.773438 211.976562 C 216.042969 210.671875 217.273438 209.34375 218.476562 207.992188 C 238.859375 185.097656 250 155.90625 250 125 C 250 91.613281 236.996094 60.222656 213.386719 36.613281 Z M 218.171875 206.824219 C 216.996094 208.15625 215.792969 209.472656 214.5625 210.757812 C 212.644531 212.753906 210.667969 214.691406 208.625 216.554688 C 207.847656 217.269531 207.0625 217.964844 206.269531 218.65625 C 205.367188 219.441406 204.453125 220.210938 203.527344 220.96875 C 196.230469 226.960938 188.238281 232.128906 179.691406 236.339844 C 176.3125 238.007812 172.847656 239.523438 169.304688 240.882812 C 155.539062 246.164062 140.601562 249.058594 125 249.058594 C 109.945312 249.058594 95.507812 246.363281 82.148438 241.429688 C 76.664062 239.40625 71.363281 237.007812 66.273438 234.257812 C 65.527344 233.851562 64.785156 233.445312 64.046875 233.027344 C 60.164062 230.828125 56.410156 228.425781 52.804688 225.832031 C 52.6875 225.746094 52.566406 225.65625 52.449219 225.574219 C 49.882812 223.722656 47.386719 221.773438 44.976562 219.722656 C 44.09375 218.976562 43.21875 218.21875 42.359375 217.445312 C 40.957031 216.199219 39.585938 214.914062 38.246094 213.601562 C 35.710938 211.113281 33.285156 208.523438 30.96875 205.832031 C 12.261719 184.101562 0.941406 155.851562 0.941406 125 C 0.941406 56.59375 56.59375 0.941406 125 0.941406 C 193.40625 0.941406 249.058594 56.59375 249.058594 125 C 249.058594 156.324219 237.390625 184.972656 218.171875 206.824219 Z M 218.171875 206.824219 "/>
</g>
</svg>
